<?xml version="1.0" encoding="UTF-8" standalone="no"?><svg id="visual" viewBox="0 0 960 540" width="960" height="540" xmlns="http://www.w3.org/2000/svg" xmlns:xlink="http://www.w3.org/1999/xlink" version="1.1"><path d="M0 412L22.8 405C45.7 398 91.3 384 137 372.5C182.7 361 228.3 352 274 356.3C319.7 360.7 365.3 378.3 411.2 385.5C457 392.7 503 389.3 548.8 380C594.7 370.7 640.3 355.3 686 355.7C731.7 356 777.3 372 823 380.7C868.7 389.3 914.3 390.7 937.2 391.3L960 392L960 541L937.2 541C914.3 541 868.7 541 823 541C777.3 541 731.7 541 686 541C640.3 541 594.7 541 548.8 541C503 541 457 541 411.2 541C365.3 541 319.7 541 274 541C228.3 541 182.7 541 137 541C91.3 541 45.7 541 22.8 541L0 541Z" fill="#000000"></path><path d="M0 394L22.8 394.7C45.7 395.3 91.3 396.7 137 402C182.7 407.3 228.3 416.7 274 416.7C319.7 416.7 365.3 407.3 411.2 400.3C457 393.3 503 388.7 548.8 391C594.7 393.3 640.3 402.7 686 411C731.7 419.3 777.3 426.7 823 425.7C868.7 424.7 914.3 415.3 937.2 410.7L960 406L960 541L937.2 541C914.3 541 868.7 541 823 541C777.3 541 731.7 541 686 541C640.3 541 594.7 541 548.8 541C503 541 457 541 411.2 541C365.3 541 319.7 541 274 541C228.3 541 182.7 541 137 541C91.3 541 45.7 541 22.8 541L0 541Z" fill="#090909"></path><path d="M0 447L22.8 447.5C45.7 448 91.3 449 137 450.3C182.7 451.7 228.3 453.3 274 447.8C319.7 442.3 365.3 429.7 411.2 422.7C457 415.7 503 414.3 548.8 419.8C594.7 425.3 640.3 437.7 686 436.5C731.7 435.3 777.3 420.7 823 420.7C868.7 420.7 914.3 435.3 937.2 442.7L960 450L960 541L937.2 541C914.3 541 868.7 541 823 541C777.3 541 731.7 541 686 541C640.3 541 594.7 541 548.8 541C503 541 457 541 411.2 541C365.3 541 319.7 541 274 541C228.3 541 182.7 541 137 541C91.3 541 45.7 541 22.8 541L0 541Z" fill="#111111"></path><path d="M0 472L22.8 474C45.7 476 91.3 480 137 475.2C182.7 470.3 228.3 456.7 274 450.2C319.7 443.7 365.3 444.3 411.2 446C457 447.7 503 450.3 548.8 450.7C594.7 451 640.3 449 686 451.3C731.7 453.7 777.3 460.3 823 463.7C868.7 467 914.3 467 937.2 467L960 467L960 541L937.2 541C914.3 541 868.7 541 823 541C777.3 541 731.7 541 686 541C640.3 541 594.7 541 548.8 541C503 541 457 541 411.2 541C365.3 541 319.7 541 274 541C228.3 541 182.7 541 137 541C91.3 541 45.7 541 22.8 541L0 541Z" fill="#171717"></path><path d="M0 490L22.8 492.7C45.7 495.3 91.3 500.7 137 502.2C182.7 503.7 228.3 501.3 274 497.2C319.7 493 365.3 487 411.2 487.8C457 488.7 503 496.3 548.8 497C594.7 497.7 640.3 491.3 686 490C731.7 488.7 777.3 492.3 823 492.7C868.7 493 914.3 490 937.2 488.5L960 487L960 541L937.2 541C914.3 541 868.7 541 823 541C777.3 541 731.7 541 686 541C640.3 541 594.7 541 548.8 541C503 541 457 541 411.2 541C365.3 541 319.7 541 274 541C228.3 541 182.7 541 137 541C91.3 541 45.7 541 22.8 541L0 541Z" fill="#1c1c1c"></path></svg>